<svg xmlns="http://www.w3.org/2000/svg" viewBox="0 0 64 64" aria-hidden="true">
  <circle cx="32" cy="32" r="26" fill="#10151d" stroke="#e8c26f" stroke-width="4"/>
  <path d="M39.2 13.5c1 6.1 4.5 9.7 10.3 10.1v8.1c-3.4.2-6.5-.8-9.9-2.9v13.8c0 10.4-11.3 16.6-20 11.1-8.6-5.5-7.4-18.6 2.1-22.2 2.1-.8 4.1-1 6.6-.6v8.5c-.7-.2-1.2-.3-1.8-.3-3.6-.1-6.2 3.1-5.1 6.5.9 2.8 4.2 4.1 6.7 2.5 1.8-1.1 2.5-2.8 2.5-4.9V13.5h8.6z" fill="#fff7dc"/>
  <path d="M39.2 13.5c.2 1.2.5 2.3.9 3.4 1.9 3.6 4.9 5.6 9.4 5.9v3.2c-5.8-.4-9.3-4-10.3-10.1v-2.4z" fill="#56c8ff"/>
</svg>
