<svg xmlns="http://www.w3.org/2000/svg" viewBox="0 0 64 64" aria-hidden="true">
  <circle cx="32" cy="32" r="26" fill="#25d366"/>
  <path d="M20.4 48.4l2.1-7.3A17 17 0 1 1 29.2 47l-8.8 1.4z" fill="none" stroke="#fff" stroke-width="4" stroke-linejoin="round"/>
  <path d="M26.7 23.7c-.4-.9-.9-.9-1.3-.9h-1.1c-.4 0-1 .1-1.5.7-.5.6-2 1.9-2 4.7s2.1 5.5 2.4 5.9c.3.4 4 6.4 10.1 8.7 5 1.9 6.1 1.5 7.2 1.4 1.1-.1 3.5-1.4 4-2.8.5-1.4.5-2.6.4-2.8-.1-.3-.5-.4-1.1-.7l-3.9-1.9c-.6-.2-1-.4-1.4.3-.4.6-1.6 1.9-2 2.3-.4.4-.7.5-1.3.2-.6-.3-2.5-.9-4.7-2.9-1.7-1.5-2.9-3.5-3.3-4.1-.3-.6 0-.9.3-1.2.3-.3.6-.7.9-1 .3-.4.4-.6.6-1 .2-.4.1-.8-.1-1.1l-1.8-3.8z" fill="#fff"/>
</svg>
